<?xml version="1.0" standalone="no"?>
<!DOCTYPE svg PUBLIC "-//W3C//DTD SVG 20010904//EN"
 "http://www.w3.org/TR/2001/REC-SVG-20010904/DTD/svg10.dtd">
<svg version="1.0" xmlns="http://www.w3.org/2000/svg"
 width="1280.000000pt" height="640.000000pt" viewBox="0 0 1280.000000 640.000000"
 preserveAspectRatio="xMidYMid meet">
<metadata>
Created by potrace 1.15, written by Peter Selinger 2001-2017
</metadata>
<g transform="translate(0.000000,640.000000) scale(0.100000,-0.100000)"
fill="#000000" stroke="none">
<path d="M4865 4879 c-561 -22 -1036 -28 -1615 -20 -656 9 -910 3 -1110 -25
-170 -25 -379 -23 -615 4 -241 28 -398 30 -929 13 -479 -16 -462 -13 -476 -89
-4 -23 -5 -93 -3 -155 l5 -112 -31 -45 c-41 -60 -40 -87 2 -105 19 -8 123 -21
238 -30 112 -9 212 -18 222 -21 16 -5 25 -24 10 -24 -34 0 -356 -76 -385 -91
-40 -21 -58 -51 -58 -98 0 -15 -22 -81 -50 -147 -61 -148 -66 -180 -46 -267
21 -90 20 -131 -4 -200 -23 -65 -25 -95 -6 -119 20 -26 57 -37 205 -58 75 -11
146 -22 158 -25 49 -11 21 -35 -114 -100 -76 -36 -150 -77 -164 -91 -32 -31
-44 -74 -59 -219 -23 -214 -17 -239 67 -269 82 -29 113 -45 119 -61 9 -23 -37
-85 -110 -150 -86 -76 -92 -97 -76 -231 7 -57 10 -122 6 -146 -4 -24 -10 -57
-13 -74 -3 -18 0 -41 6 -53 17 -31 102 -70 189 -88 106 -21 414 -20 822 3 343
19 1103 24 2315 15 411 -3 701 0 1090 13 594 20 1169 17 1440 -8 409 -38 553
-41 950 -17 400 23 1060 28 1345 9 80 -5 202 -11 271 -14 l126 -5 5 -64 c8
-90 38 -149 92 -174 41 -20 59 -21 467 -21 478 0 464 -2 521 77 25 34 456
1022 524 1201 35 94 112 230 134 237 10 3 122 5 248 3 l229 -2 16 -28 c22 -38
54 -43 182 -30 96 10 134 9 285 -8 292 -33 474 -40 977 -40 l483 0 22 43 c29
55 31 170 5 239 l-18 46 -125 7 c-69 4 -326 5 -572 2 -425 -5 -560 -13 -842
-47 -72 -9 -125 -9 -223 0 -146 13 -166 8 -188 -53 l-12 -34 -191 -2 c-273 -2
-303 -6 -344 -49 -46 -48 -50 -58 -337 -742 -276 -660 -287 -683 -318 -718
l-20 -22 -406 0 c-256 0 -420 4 -444 11 -46 12 -67 52 -67 124 l0 45 165 0
c129 0 173 3 195 15 64 33 60 -69 60 1525 0 1590 4 1496 -58 1532 -24 14 -93
17 -592 19 -426 2 -589 0 -662 -10 -76 -10 -130 -11 -260 -2 -252 17 -600 14
-873 -9 -306 -25 -552 -25 -852 0 -479 40 -586 43 -928 29z"/>
</g>
</svg>
